<mxfile host="app.diagrams.net" agent="Mozilla/5.0 (Windows NT 10.0; Win64; x64) AppleWebKit/537.36 (KHTML, like Gecko) Chrome/126.0.0.0 Safari/537.36 OPR/112.0.0.0" version="24.7.7">
  <diagram id="C5RBs43oDa-KdzZeNtuy" name="Page-1">
    <mxGraphModel dx="432" dy="356" grid="1" gridSize="10" guides="1" tooltips="1" connect="1" arrows="1" fold="1" page="1" pageScale="1" pageWidth="827" pageHeight="1169" math="0" shadow="0">
      <root>
        <mxCell id="WIyWlLk6GJQsqaUBKTNV-0" />
        <mxCell id="WIyWlLk6GJQsqaUBKTNV-1" parent="WIyWlLk6GJQsqaUBKTNV-0" />
        <mxCell id="OGS3B3dBSdwTEnX2FD4Q-23" value="" style="group" parent="WIyWlLk6GJQsqaUBKTNV-1" vertex="1" connectable="0">
          <mxGeometry x="160" y="50" width="1340" height="2000" as="geometry" />
        </mxCell>
        <mxCell id="e1jJYObIYilY-aPVNplS-69" value="Service Catalogue" style="swimlane;whiteSpace=wrap;html=1;" parent="OGS3B3dBSdwTEnX2FD4Q-23" vertex="1">
          <mxGeometry x="40" y="-40" width="1400" height="2063.79" as="geometry" />
        </mxCell>
        <mxCell id="e1jJYObIYilY-aPVNplS-12" value="EducationLVL" style="swimlane;fontStyle=2;align=center;verticalAlign=top;childLayout=stackLayout;horizontal=1;startSize=26;horizontalStack=0;resizeParent=1;resizeLast=0;collapsible=1;marginBottom=0;rounded=0;shadow=0;strokeWidth=1;" parent="e1jJYObIYilY-aPVNplS-69" vertex="1">
          <mxGeometry x="349.81" y="1491.79" width="380" height="275.52" as="geometry">
            <mxRectangle x="230" y="140" width="160" height="26" as="alternateBounds" />
          </mxGeometry>
        </mxCell>
        <mxCell id="e1jJYObIYilY-aPVNplS-13" value="ID:PK" style="text;align=left;verticalAlign=top;spacingLeft=4;spacingRight=4;overflow=hidden;rotatable=0;points=[[0,0.5],[1,0.5]];portConstraint=eastwest;" parent="e1jJYObIYilY-aPVNplS-12" vertex="1">
          <mxGeometry y="26" width="380" height="33.14434511484994" as="geometry" />
        </mxCell>
        <mxCell id="e1jJYObIYilY-aPVNplS-14" value="Name:String" style="text;align=left;verticalAlign=top;spacingLeft=4;spacingRight=4;overflow=hidden;rotatable=0;points=[[0,0.5],[1,0.5]];portConstraint=eastwest;rounded=0;shadow=0;html=0;" parent="e1jJYObIYilY-aPVNplS-12" vertex="1">
          <mxGeometry y="59.14434511484994" width="380" height="33.14434511484994" as="geometry" />
        </mxCell>
        <mxCell id="OGS3B3dBSdwTEnX2FD4Q-24" value="CategorieScolaire:categorieScolaire" style="text;html=1;align=left;verticalAlign=middle;whiteSpace=wrap;rounded=0;" parent="e1jJYObIYilY-aPVNplS-12" vertex="1">
          <mxGeometry y="92.28869022969988" width="380" height="38.24347513251916" as="geometry" />
        </mxCell>
        <mxCell id="OGS3B3dBSdwTEnX2FD4Q-25" value="*Section:String" style="text;html=1;align=left;verticalAlign=middle;whiteSpace=wrap;rounded=0;" parent="e1jJYObIYilY-aPVNplS-12" vertex="1">
          <mxGeometry y="130.53216536221905" width="380" height="38.24347513251916" as="geometry" />
        </mxCell>
        <mxCell id="e1jJYObIYilY-aPVNplS-16" value="" style="line;html=1;strokeWidth=1;align=left;verticalAlign=middle;spacingTop=-1;spacingLeft=3;spacingRight=3;rotatable=0;labelPosition=right;points=[];portConstraint=eastwest;" parent="e1jJYObIYilY-aPVNplS-12" vertex="1">
          <mxGeometry y="168.7756404947382" width="380" height="10.198260035338444" as="geometry" />
        </mxCell>
        <mxCell id="gkKimKPJVhp-GBaB_DU5-23" value="&lt;u&gt;AddEducationalLevel ( ):&lt;/u&gt;" style="text;html=1;align=left;verticalAlign=middle;resizable=0;points=[];autosize=1;strokeColor=none;fillColor=none;" parent="e1jJYObIYilY-aPVNplS-12" vertex="1">
          <mxGeometry y="178.97390053007666" width="380" height="30" as="geometry" />
        </mxCell>
        <mxCell id="gkKimKPJVhp-GBaB_DU5-22" value="&lt;u&gt;AllEducational_levels ()&lt;/u&gt;" style="text;html=1;align=left;verticalAlign=middle;resizable=0;points=[];autosize=1;strokeColor=none;fillColor=none;" parent="e1jJYObIYilY-aPVNplS-12" vertex="1">
          <mxGeometry y="208.97390053007666" width="380" height="30" as="geometry" />
        </mxCell>
        <mxCell id="gkKimKPJVhp-GBaB_DU5-25" value="&lt;u&gt;DeleteEducationLevelByID( )&lt;/u&gt;" style="text;html=1;align=left;verticalAlign=middle;resizable=0;points=[];autosize=1;strokeColor=none;fillColor=none;" parent="e1jJYObIYilY-aPVNplS-12" vertex="1">
          <mxGeometry y="238.97390053007666" width="380" height="30" as="geometry" />
        </mxCell>
        <mxCell id="OGS3B3dBSdwTEnX2FD4Q-62" value="" style="group;align=right;verticalAlign=bottom;fontFamily=Helvetica;fontSize=11;fontColor=default;labelBackgroundColor=default;resizable=0;fillColor=none;gradientColor=none;" parent="e1jJYObIYilY-aPVNplS-69" vertex="1" connectable="0">
          <mxGeometry x="953.6190476190476" y="1023.4800938311464" width="80" height="30" as="geometry" />
        </mxCell>
        <mxCell id="OGS3B3dBSdwTEnX2FD4Q-64" value="" style="group" parent="OGS3B3dBSdwTEnX2FD4Q-62" vertex="1" connectable="0">
          <mxGeometry width="80" height="30" as="geometry" />
        </mxCell>
        <mxCell id="e1jJYObIYilY-aPVNplS-24" value="Matiere" style="swimlane;fontStyle=2;align=center;verticalAlign=top;childLayout=stackLayout;horizontal=1;startSize=26;horizontalStack=0;resizeParent=1;resizeLast=0;collapsible=1;marginBottom=0;rounded=0;shadow=0;strokeWidth=1;" parent="e1jJYObIYilY-aPVNplS-69" vertex="1">
          <mxGeometry x="400" y="1249.9987931034486" width="279.62" height="212.53188591926246" as="geometry">
            <mxRectangle x="230" y="140" width="160" height="26" as="alternateBounds" />
          </mxGeometry>
        </mxCell>
        <mxCell id="e1jJYObIYilY-aPVNplS-25" value="ID:PK" style="text;align=left;verticalAlign=top;spacingLeft=4;spacingRight=4;overflow=hidden;rotatable=0;points=[[0,0.5],[1,0.5]];portConstraint=eastwest;" parent="e1jJYObIYilY-aPVNplS-24" vertex="1">
          <mxGeometry y="26" width="279.62" height="33.14434511484994" as="geometry" />
        </mxCell>
        <mxCell id="e1jJYObIYilY-aPVNplS-26" value="Name:String" style="text;align=left;verticalAlign=top;spacingLeft=4;spacingRight=4;overflow=hidden;rotatable=0;points=[[0,0.5],[1,0.5]];portConstraint=eastwest;rounded=0;shadow=0;html=0;" parent="e1jJYObIYilY-aPVNplS-24" vertex="1">
          <mxGeometry y="59.14434511484994" width="279.62" height="33.14434511484994" as="geometry" />
        </mxCell>
        <mxCell id="e1jJYObIYilY-aPVNplS-27" value="EducationLVL:educationlvl" style="text;align=left;verticalAlign=top;spacingLeft=4;spacingRight=4;overflow=hidden;rotatable=0;points=[[0,0.5],[1,0.5]];portConstraint=eastwest;rounded=0;shadow=0;html=0;" parent="e1jJYObIYilY-aPVNplS-24" vertex="1">
          <mxGeometry y="92.28869022969988" width="279.62" height="33.14434511484994" as="geometry" />
        </mxCell>
        <mxCell id="gkKimKPJVhp-GBaB_DU5-34" value="GetMatieresFromNiveau( )" style="text;align=left;verticalAlign=top;spacingLeft=4;spacingRight=4;overflow=hidden;rotatable=0;points=[[0,0.5],[1,0.5]];portConstraint=eastwest;rounded=0;shadow=0;html=0;" parent="e1jJYObIYilY-aPVNplS-24" vertex="1">
          <mxGeometry y="125.43303534454982" width="279.62" height="21.774712643678164" as="geometry" />
        </mxCell>
        <mxCell id="gkKimKPJVhp-GBaB_DU5-33" value="" style="endArrow=none;html=1;rounded=0;entryX=0.992;entryY=0.916;entryDx=0;entryDy=0;exitX=-0.007;exitY=-0.068;exitDx=0;exitDy=0;entryPerimeter=0;exitPerimeter=0;" parent="e1jJYObIYilY-aPVNplS-24" source="gkKimKPJVhp-GBaB_DU5-34" target="e1jJYObIYilY-aPVNplS-27" edge="1">
          <mxGeometry width="50" height="50" relative="1" as="geometry">
            <mxPoint x="-124.19333333333333" y="154.0598361733447" as="sourcePoint" />
            <mxPoint x="-74.19333333333333" y="100.89891663311484" as="targetPoint" />
          </mxGeometry>
        </mxCell>
        <mxCell id="kG0ZhOz9SaHyinECif-0-0" value="AddMatiere( )" style="text;align=left;verticalAlign=top;spacingLeft=4;spacingRight=4;overflow=hidden;rotatable=0;points=[[0,0.5],[1,0.5]];portConstraint=eastwest;rounded=0;shadow=0;html=0;" vertex="1" parent="e1jJYObIYilY-aPVNplS-24">
          <mxGeometry y="147.207747988228" width="279.62" height="21.774712643678164" as="geometry" />
        </mxCell>
        <mxCell id="gkKimKPJVhp-GBaB_DU5-35" value="AllMatiere( )" style="text;align=left;verticalAlign=top;spacingLeft=4;spacingRight=4;overflow=hidden;rotatable=0;points=[[0,0.5],[1,0.5]];portConstraint=eastwest;rounded=0;shadow=0;html=0;" parent="e1jJYObIYilY-aPVNplS-24" vertex="1">
          <mxGeometry y="168.98246063190615" width="279.62" height="21.774712643678164" as="geometry" />
        </mxCell>
        <mxCell id="gkKimKPJVhp-GBaB_DU5-36" value="DeleteMatiere( )" style="text;align=left;verticalAlign=top;spacingLeft=4;spacingRight=4;overflow=hidden;rotatable=0;points=[[0,0.5],[1,0.5]];portConstraint=eastwest;rounded=0;shadow=0;html=0;" parent="e1jJYObIYilY-aPVNplS-24" vertex="1">
          <mxGeometry y="190.7571732755843" width="279.62" height="21.774712643678164" as="geometry" />
        </mxCell>
        <mxCell id="46zY262gzCTUuiPBzojq-7" value="" style="endArrow=none;html=1;edgeStyle=orthogonalEdgeStyle;rounded=0;entryX=0;entryY=0.5;entryDx=0;entryDy=0;" parent="e1jJYObIYilY-aPVNplS-69" source="e1jJYObIYilY-aPVNplS-12" target="e1jJYObIYilY-aPVNplS-27" edge="1">
          <mxGeometry relative="1" as="geometry">
            <mxPoint x="278.8571428571429" y="943.5164640086062" as="sourcePoint" />
            <mxPoint x="444.95238095238096" y="943.5164640086062" as="targetPoint" />
            <Array as="points">
              <mxPoint x="300" y="1630" />
              <mxPoint x="300" y="1359" />
            </Array>
          </mxGeometry>
        </mxCell>
        <mxCell id="46zY262gzCTUuiPBzojq-8" value="parent" style="edgeLabel;resizable=0;html=1;align=left;verticalAlign=bottom;" parent="46zY262gzCTUuiPBzojq-7" connectable="0" vertex="1">
          <mxGeometry x="-1" relative="1" as="geometry">
            <mxPoint x="-40" as="offset" />
          </mxGeometry>
        </mxCell>
        <mxCell id="46zY262gzCTUuiPBzojq-9" value="child" style="edgeLabel;resizable=0;html=1;align=right;verticalAlign=bottom;" parent="46zY262gzCTUuiPBzojq-7" connectable="0" vertex="1">
          <mxGeometry x="1" relative="1" as="geometry" />
        </mxCell>
        <mxCell id="Vz9f1gssuTOusqs6ggo8-69" value="categorieScolaire" style="swimlane;fontStyle=0;childLayout=stackLayout;horizontal=1;startSize=26;fillColor=none;horizontalStack=0;resizeParent=1;resizeParentMax=0;resizeLast=0;collapsible=1;marginBottom=0;whiteSpace=wrap;html=1;" parent="e1jJYObIYilY-aPVNplS-69" vertex="1">
          <mxGeometry x="760.0014285714285" y="1643.7873218109546" width="145.33333333333331" height="111.03276088940851" as="geometry" />
        </mxCell>
        <mxCell id="Vz9f1gssuTOusqs6ggo8-70" value="+ ecole" style="text;strokeColor=none;fillColor=none;align=left;verticalAlign=top;spacingLeft=4;spacingRight=4;overflow=hidden;rotatable=0;points=[[0,0.5],[1,0.5]];portConstraint=eastwest;whiteSpace=wrap;html=1;" parent="Vz9f1gssuTOusqs6ggo8-69" vertex="1">
          <mxGeometry y="26" width="145.33333333333331" height="28.34425362980284" as="geometry" />
        </mxCell>
        <mxCell id="Vz9f1gssuTOusqs6ggo8-71" value="+ college" style="text;strokeColor=none;fillColor=none;align=left;verticalAlign=top;spacingLeft=4;spacingRight=4;overflow=hidden;rotatable=0;points=[[0,0.5],[1,0.5]];portConstraint=eastwest;whiteSpace=wrap;html=1;" parent="Vz9f1gssuTOusqs6ggo8-69" vertex="1">
          <mxGeometry y="54.344253629802836" width="145.33333333333331" height="28.34425362980284" as="geometry" />
        </mxCell>
        <mxCell id="Vz9f1gssuTOusqs6ggo8-72" value="+ lycee" style="text;strokeColor=none;fillColor=none;align=left;verticalAlign=top;spacingLeft=4;spacingRight=4;overflow=hidden;rotatable=0;points=[[0,0.5],[1,0.5]];portConstraint=eastwest;whiteSpace=wrap;html=1;" parent="Vz9f1gssuTOusqs6ggo8-69" vertex="1">
          <mxGeometry y="82.68850725960567" width="145.33333333333331" height="28.34425362980284" as="geometry" />
        </mxCell>
        <mxCell id="Vz9f1gssuTOusqs6ggo8-73" value="" style="endArrow=block;dashed=1;endFill=0;endSize=12;html=1;rounded=0;exitX=1;exitY=0.5;exitDx=0;exitDy=0;entryX=0.547;entryY=0.001;entryDx=0;entryDy=0;entryPerimeter=0;" parent="e1jJYObIYilY-aPVNplS-69" source="OGS3B3dBSdwTEnX2FD4Q-24" target="Vz9f1gssuTOusqs6ggo8-69" edge="1">
          <mxGeometry width="160" relative="1" as="geometry">
            <mxPoint x="673.3333333333333" y="1417.0109770195784" as="sourcePoint" />
            <mxPoint x="683.3809523809524" y="1627.455176377329" as="targetPoint" />
            <Array as="points">
              <mxPoint x="799" y="1602.79" />
            </Array>
          </mxGeometry>
        </mxCell>
      </root>
    </mxGraphModel>
  </diagram>
</mxfile>
